<svg xmlns="http://www.w3.org/2000/svg" viewBox="4807 1205 841 848" fill="none"><path d="M5456.38 1721.07L5442.23 1706.92L5442.23 1706.92L5456.38 1721.07ZM5533.51 1721.07L5547.65 1706.92L5547.65 1706.92L5533.51 1721.07ZM5533.51 1798.2L5547.65 1812.34V1812.34L5533.51 1798.2ZM5381.7 1950.01L5395.84 1964.15L5395.84 1964.15L5381.7 1950.01ZM5304.57 1950.01L5290.42 1964.15L5290.42 1964.15L5304.57 1950.01ZM5304.57 1872.88L5290.42 1858.73L5290.42 1858.73L5304.57 1872.88ZM5456.38 1721.07L5470.52 1735.21C5484.01 1721.72 5505.88 1721.72 5519.37 1735.21L5533.51 1721.07L5547.65 1706.92C5518.54 1677.81 5471.34 1677.81 5442.23 1706.92L5456.38 1721.07ZM5533.51 1721.07L5519.37 1735.21C5532.86 1748.7 5532.86 1770.57 5519.37 1784.06L5533.51 1798.2L5547.65 1812.34C5576.76 1783.23 5576.76 1736.03 5547.65 1706.92L5533.51 1721.07ZM5533.51 1798.2L5519.37 1784.06L5367.56 1935.87L5381.7 1950.01L5395.84 1964.15L5547.65 1812.34L5533.51 1798.2ZM5381.7 1950.01L5367.56 1935.87C5354.07 1949.35 5332.2 1949.35 5318.71 1935.87L5304.57 1950.01L5290.42 1964.15C5319.53 1993.26 5366.73 1993.26 5395.84 1964.15L5381.7 1950.01ZM5304.57 1950.01L5318.71 1935.87C5305.22 1922.38 5305.22 1900.51 5318.71 1887.02L5304.57 1872.88L5290.42 1858.73C5261.31 1887.84 5261.31 1935.04 5290.42 1964.15L5304.57 1950.01ZM5304.57 1872.88L5318.71 1887.02L5470.52 1735.21L5456.38 1721.07L5442.23 1706.92L5290.42 1858.73L5304.57 1872.88Z" fill="currentColor"></path><path d="M5586.29 1886.37C5615.4 1915.48 5615.4 1962.68 5586.29 1991.79C5557.18 2020.89 5509.98 2020.89 5480.87 1991.79L5424.54 1935.46L5452.82 1907.17L5509.15 1963.5C5522.64 1976.99 5544.51 1976.99 5558 1963.5L5558.62 1962.86C5571.49 1949.33 5571.28 1927.93 5558 1914.65L5501.67 1858.32L5529.96 1830.04L5586.29 1886.37Z" fill="currentColor"></path><path d="M5420.23 1738.77L5309.22 1849.78C5302.65 1856.35 5292.42 1857.53 5284.52 1852.62L4856.22 1586.35C4849.93 1582.44 4846.32 1575.38 4846.82 1568L4867.63 1264.08C4868.38 1253.01 4878.01 1244.67 4889.07 1245.5L5185.27 1267.66C5192.24 1268.18 5198.44 1272.31 5201.61 1278.54L5423.92 1715.56C5427.84 1723.28 5426.36 1732.64 5420.23 1738.77Z" stroke="currentColor" stroke-width="40" stroke-linecap="round"></path><path d="M5361.5 1788.5L5025.5 1441" stroke="currentColor" stroke-width="40" stroke-linecap="round"></path></svg>