<svg xmlns="http://www.w3.org/2000/svg" viewBox="249 239 851 694" fill="none"><path d="M885.973 856.519V876.519V876.519V856.519ZM486 856.519L486 876.519H486V856.519ZM432.451 846.95L439.406 828.198L433.536 826.021L427.472 827.58L432.451 846.95ZM333.564 872.371L338.544 891.741H338.544L333.564 872.371ZM309.322 847.622L290.059 842.243L290.059 842.243L309.322 847.622ZM337.959 745.077L357.222 750.457L358.745 745.003L357.183 739.561L337.959 745.077ZM486 299V279H486L486 299ZM885.973 299V319C959.979 319 1019.97 378.994 1019.97 453H1039.97H1059.97C1059.97 356.902 982.07 279 885.973 279V299ZM1039.97 453H1019.97V702.519H1039.97H1059.97V453H1039.97ZM1039.97 702.519H1019.97C1019.97 776.525 959.979 836.519 885.973 836.519V856.519V876.519C982.07 876.519 1059.97 798.616 1059.97 702.519H1039.97ZM885.973 856.519V836.519H486V856.519V876.519H885.973V856.519ZM486 856.519L486 836.519C469.581 836.519 453.894 833.572 439.406 828.198L432.451 846.95L425.496 865.702C444.365 872.7 464.758 876.518 486 876.519L486 856.519ZM432.451 846.95L427.472 827.58L328.585 853.001L333.564 872.371L338.544 891.741L437.431 866.32L432.451 846.95ZM333.564 872.371L328.585 853.001C328.556 853.008 328.534 853.013 328.518 853.016C328.502 853.019 328.492 853.02 328.486 853.021C328.481 853.022 328.48 853.021 328.482 853.021C328.484 853.021 328.489 853.021 328.497 853.021C328.504 853.021 328.513 853.022 328.523 853.023C328.533 853.024 328.544 853.025 328.554 853.027C328.576 853.03 328.596 853.035 328.613 853.04C328.646 853.05 328.656 853.057 328.646 853.051C328.641 853.048 328.632 853.042 328.621 853.034C328.61 853.025 328.597 853.014 328.585 853.001C328.573 852.989 328.562 852.976 328.553 852.965C328.545 852.953 328.539 852.944 328.536 852.939C328.53 852.929 328.538 852.939 328.547 852.973C328.552 852.989 328.556 853.009 328.559 853.031C328.56 853.042 328.561 853.053 328.562 853.063C328.563 853.073 328.563 853.082 328.563 853.089C328.563 853.097 328.563 853.102 328.563 853.104C328.562 853.106 328.562 853.105 328.563 853.099C328.564 853.094 328.566 853.084 328.569 853.068C328.572 853.052 328.577 853.03 328.585 853.001L309.322 847.622L290.059 842.243C281.776 871.906 308.716 899.409 338.544 891.741L333.564 872.371ZM309.322 847.622L328.585 853.001L357.222 750.457L337.959 745.077L318.696 739.698L290.059 842.243L309.322 847.622ZM337.959 745.077L357.183 739.561C353.813 727.817 352 715.395 352 702.519H332H312C312 719.17 314.347 735.304 318.735 750.594L337.959 745.077ZM332 702.519H352V453H332H312V702.519H332ZM332 453H352C352 378.994 411.994 319 486 319L486 299L486 279C389.903 279 312 356.903 312 453H332ZM486 299V319H885.973V299V279H486V299Z" fill="currentColor"></path></svg>