<svg xmlns="http://www.w3.org/2000/svg" viewBox="2430 1218 706 678" fill="none"><path d="M2922 1278V1298C2996.01 1298 3056 1357.99 3056 1432H3076H3096C3096 1335.9 3018.1 1258 2922 1258V1278ZM3076 1432H3056V1681.52H3076H3096V1432H3076ZM3076 1681.52H3056C3056 1755.52 2996.01 1815.52 2922 1815.52V1835.52V1855.52C3018.1 1855.52 3096 1777.62 3096 1681.52H3076ZM2922 1835.52V1815.52H2644V1835.52V1855.52H2922V1835.52ZM2644 1835.52V1815.52C2569.99 1815.52 2510 1755.52 2510 1681.52H2490H2470C2470 1777.62 2547.9 1855.52 2644 1855.52V1835.52ZM2490 1681.52H2510V1432H2490H2470V1681.52H2490ZM2490 1432H2510C2510 1357.99 2569.99 1298 2644 1298V1278V1258C2547.9 1258 2470 1335.9 2470 1432H2490ZM2644 1278V1298H2922V1278V1258H2644V1278Z" fill="currentColor"></path><path d="M2649 1570L2736.72 1644.52C2745.15 1651.68 2757.8 1650.64 2764.94 1642.18L2962 1409" stroke="currentColor" stroke-width="40" stroke-linecap="round"></path></svg>