<svg xmlns="http://www.w3.org/2000/svg" viewBox="2430 244 812 767" fill="none"><path d="M2922 393V413C2996.01 413 3056 472.994 3056 547H3076H3096C3096 450.902 3018.1 373 2922 373V393ZM3076 547H3056V796.519H3076H3096V547H3076ZM3076 796.519H3056C3056 870.525 2996.01 930.519 2922 930.519V950.519V970.519C3018.1 970.519 3096 892.616 3096 796.519H3076ZM2922 950.519V930.519H2644V950.519V970.519H2922V950.519ZM2644 950.519V930.519C2569.99 930.519 2510 870.525 2510 796.519H2490H2470C2470 892.616 2547.9 970.519 2644 970.519V950.519ZM2490 796.519H2510V547H2490H2470V796.519H2490ZM2490 547H2510C2510 472.994 2569.99 413 2644 413V393V373C2547.9 373 2470 450.902 2470 547H2490ZM2644 393V413H2922V393V373H2644V393Z" fill="currentColor"></path><path d="M3028 284C3124.1 284 3202 361.902 3202 458V707.519C3202 786.356 3149.57 852.946 3077.68 874.324C3085.44 858.82 3090.96 841.996 3093.8 824.277C3134.51 801.284 3162 757.613 3162 707.519V458C3162 383.994 3102.01 324 3028 324H2750C2708.26 324 2670.98 343.083 2646.41 373H2644C2626.74 373 2610.07 375.513 2594.33 380.193C2622.89 323.157 2681.87 284 2750 284H3028Z" fill="currentColor"></path></svg>