<svg xmlns="http://www.w3.org/2000/svg" viewBox="3668 180 772 753" fill="none"><path d="M4160 295C4171.13 295 4182.02 296.047 4192.58 298.046L4152.44 335H3882C3807.99 335 3748 394.994 3748 469V718.519C3748 792.525 3807.99 852.519 3882 852.519H4160C4234.01 852.519 4294 792.525 4294 718.519V476.522L4331.86 441.664C4333.27 450.57 4334 459.699 4334 469V718.519C4334 814.616 4256.1 892.519 4160 892.519H3882C3785.9 892.519 3708 814.616 3708 718.519V469C3708 372.902 3785.9 295 3882 295H4160Z" fill="currentColor"></path><path d="M4110 510L4400 220M4400 378.287V220H4204.74" stroke="currentColor" stroke-width="40" stroke-linecap="round"></path></svg>