<svg xmlns="http://www.w3.org/2000/svg" viewBox="5828 107 873 869" fill="none"><mask id="path-39-inside-2_268_314" fill="white">
<path d="M6091.38 192.087C6122.32 173.406 6153.95 209.623 6145.46 244.759C6139.28 270.362 6136 297.1 6136 324.603C6136 511.767 6287.73 663.493 6474.89 663.493C6505.03 663.493 6534.24 659.56 6562.05 652.178C6596.99 642.907 6633.89 673.707 6615.91 705.056C6550.55 818.975 6427.72 895.711 6286.97 895.711C6077.67 895.711 5908 726.042 5908 516.744C5908 379.009 5981.48 258.437 6091.38 192.087Z"></path>
</mask><path d="M6136 324.603H6096V324.603L6136 324.603ZM6474.89 663.493V703.493H6474.89L6474.89 663.493ZM6286.97 895.711V935.711H6286.97L6286.97 895.711ZM5908 516.744H5868V516.744H5908ZM6615.91 705.056L6581.21 685.151L6615.91 705.056ZM6145.46 244.759L6106.58 235.368L6145.46 244.759ZM6145.46 244.759L6106.58 235.368C6099.66 264.024 6096 293.913 6096 324.603H6136H6176C6176 300.287 6178.9 276.701 6184.34 254.149L6145.46 244.759ZM6136 324.603L6096 324.603C6096 533.858 6265.64 703.493 6474.89 703.493V663.493V623.493C6309.82 623.493 6176 489.675 6176 324.603L6136 324.603ZM6474.89 663.493L6474.89 703.493C6508.52 703.493 6541.18 699.102 6572.31 690.84L6562.05 652.178L6551.79 613.517C6527.3 620.018 6501.53 623.493 6474.89 623.493L6474.89 663.493ZM6615.91 705.056L6581.21 685.151C6522.69 787.15 6412.81 855.711 6286.97 855.711L6286.97 895.711L6286.97 935.711C6442.63 935.711 6578.41 850.8 6650.6 724.961L6615.91 705.056ZM6286.97 895.711V855.711C6099.76 855.711 5948 703.95 5948 516.744H5908H5868C5868 748.133 6055.58 935.711 6286.97 935.711V895.711ZM5908 516.744H5948C5948 393.594 6013.65 285.74 6112.05 226.331L6091.38 192.087L6070.7 157.844C5949.31 231.134 5868 364.424 5868 516.744H5908ZM6562.05 652.178L6572.31 690.84C6574.01 690.388 6575.91 690.382 6577.8 690.868C6579.81 691.382 6581.14 692.271 6581.71 692.793C6582.28 693.315 6581.3 692.684 6580.82 690.353C6580.57 689.171 6580.55 687.915 6580.74 686.762C6580.94 685.618 6581.26 685.065 6581.21 685.151L6615.91 705.056L6650.6 724.961C6670.56 690.17 6658.37 654.654 6635.94 633.976C6614.9 614.584 6582.96 605.246 6551.79 613.517L6562.05 652.178ZM6145.46 244.759L6184.34 254.149C6191.91 222.805 6181.86 191.072 6162 170.477C6140.83 148.518 6105.05 137.111 6070.7 157.844L6091.38 192.087L6112.05 226.331C6112.14 226.279 6111.59 226.615 6110.45 226.833C6109.3 227.053 6108.05 227.057 6106.86 226.839C6104.52 226.41 6103.87 225.449 6104.41 226.006C6104.95 226.563 6105.87 227.883 6106.43 229.876C6106.95 231.766 6106.99 233.658 6106.58 235.368L6145.46 244.759Z" fill="currentColor" mask="url(#path-39-inside-2_268_314)"></path></svg>