<svg xmlns="http://www.w3.org/2000/svg" viewBox="4714 151 915 765" fill="none"><path d="M5187.33 319H4928C4853.99 319 4794 378.994 4794 453V702.519C4794 776.525 4853.99 836.519 4928 836.519H5327.97C5401.98 836.518 5461.97 776.525 5461.97 702.519V543.658L5501.97 513.424V702.519C5501.97 798.616 5424.07 876.518 5327.97 876.519H4928C4831.9 876.519 4754 798.616 4754 702.519V453C4754 356.902 4831.9 279 4928 279H5240.25L5187.33 319Z" fill="currentColor"></path><path d="M5493.68 195.285L5106.48 487.951C5103.89 489.909 5101.82 492.467 5100.44 495.406L5055.4 591.324C5048.71 605.57 5060.34 621.603 5075.96 619.673L5185.91 606.091C5189.4 605.66 5192.71 604.317 5195.51 602.197L5580.76 311.005C5589.55 304.358 5591.31 291.85 5584.69 283.037L5521.73 199.228C5515.08 190.378 5502.51 188.611 5493.68 195.285Z" stroke="currentColor" stroke-width="40" stroke-linecap="round"></path><path d="M5415.77 256.838L5494.93 361.876" stroke="currentColor" stroke-width="40" stroke-linecap="round"></path></svg>