<svg xmlns="http://www.w3.org/2000/svg" viewBox="275 1034 909 897" fill="none"><mask id="path-13-inside-1_268_314" fill="white">
<path d="M1064.82 1419.42C1117.1 1445.03 1117.1 1519.55 1064.82 1545.15L455.68 1843.48C402.78 1869.39 343.485 1822.36 356.667 1764.95L419.518 1491.24C420.871 1485.35 420.871 1479.23 419.518 1473.34L356.667 1199.63C343.484 1142.22 402.78 1095.19 455.68 1121.1L1064.82 1419.42Z"></path>
</mask><path d="M419.518 1491.24L458.504 1500.19L458.504 1500.19L419.518 1491.24ZM419.518 1473.34L458.504 1464.39L458.504 1464.39L419.518 1473.34ZM356.667 1199.63L317.682 1208.58L356.667 1199.63ZM455.68 1843.48L438.087 1807.56L455.68 1843.48ZM356.667 1764.95L317.682 1756L356.667 1764.95ZM1064.82 1545.15L1047.23 1509.23L1064.82 1545.15ZM1064.82 1419.42L1047.23 1455.35L1064.82 1419.42ZM1064.82 1545.15L1047.23 1509.23L438.087 1807.56L455.68 1843.48L473.274 1879.41L1082.41 1581.08L1064.82 1545.15ZM356.667 1764.95L395.653 1773.9L458.504 1500.19L419.518 1491.24L380.533 1482.29L317.682 1756L356.667 1764.95ZM419.518 1491.24L458.504 1500.19C461.209 1488.41 461.209 1476.17 458.504 1464.39L419.518 1473.34L380.533 1482.29L380.533 1482.29L419.518 1491.24ZM419.518 1473.34L458.504 1464.39L395.653 1190.68L356.667 1199.63L317.682 1208.58L380.533 1482.29L419.518 1473.34ZM455.68 1121.1L438.087 1157.02L1047.23 1455.35L1064.82 1419.42L1082.41 1383.5L473.274 1085.17L455.68 1121.1ZM356.667 1199.63L395.653 1190.68C390.003 1166.07 415.415 1145.92 438.087 1157.02L455.68 1121.1L473.274 1085.17C390.145 1044.46 296.966 1118.36 317.682 1208.58L356.667 1199.63ZM455.68 1843.48L438.087 1807.56C415.415 1818.66 390.003 1798.51 395.653 1773.9L356.667 1764.95L317.682 1756C296.966 1846.21 390.145 1920.12 473.274 1879.41L455.68 1843.48ZM1064.82 1545.15L1082.41 1581.08C1164.57 1540.84 1164.57 1423.74 1082.41 1383.5L1064.82 1419.42L1047.23 1455.35C1069.63 1466.32 1069.63 1498.26 1047.23 1509.23L1064.82 1545.15Z" fill="currentColor" mask="url(#path-13-inside-1_268_314)"></path><path d="M442 1478H1082.5" stroke="currentColor" stroke-width="40"></path></svg>