<svg xmlns="http://www.w3.org/2000/svg" viewBox="1343 244 828 678" fill="none"><path d="M1956.98 304L1956.98 284H1956.98V304ZM1956.98 304L1956.98 324C2030.99 324 2090.98 383.994 2090.98 458H2110.98H2130.98C2130.98 361.903 2053.08 284 1956.98 284L1956.98 304ZM2110.98 458H2090.98V707.519H2110.98H2130.98V458H2110.98ZM2110.98 707.519H2090.98C2090.98 781.525 2030.99 841.519 1956.98 841.519V861.519V881.519C2053.08 881.519 2130.98 803.616 2130.98 707.519H2110.98ZM1956.98 861.519V841.519H1557.01V861.519V881.519H1956.98V861.519ZM1557.01 861.519V841.519C1483 841.519 1423.01 781.525 1423.01 707.519H1403.01H1383.01C1383.01 803.616 1460.91 881.519 1557.01 881.519V861.519ZM1403.01 707.519H1423.01V458H1403.01H1383.01V707.519H1403.01ZM1403.01 458H1423.01C1423.01 383.994 1483 324 1557.01 324V304V284C1460.91 284 1383.01 361.902 1383.01 458H1403.01ZM1557.01 304V324H1956.98V304V284H1557.01V304Z" fill="currentColor"></path><path d="M1620.56 308V868" stroke="currentColor" stroke-width="40"></path></svg>