<svg xmlns="http://www.w3.org/2000/svg" viewBox="3492 1219 851 694" fill="none"><path d="M4129.41 1279L4129.41 1259H4129.41V1279ZM3675.89 1826.95L3682.84 1808.2L3676.97 1806.02L3670.91 1807.58L3675.89 1826.95ZM3577 1852.37L3581.98 1871.74L3581.98 1871.74L3577 1852.37ZM3552.76 1827.62L3533.5 1822.24L3533.5 1822.24L3552.76 1827.62ZM3581.4 1725.08L3600.66 1730.46L3602.18 1725L3600.62 1719.56L3581.4 1725.08ZM4129.41 1279L4129.41 1299C4203.42 1299 4263.41 1358.99 4263.41 1433H4283.41H4303.41C4303.41 1336.9 4225.51 1259 4129.41 1259L4129.41 1279ZM4283.41 1433H4263.41V1682.52H4283.41H4303.41V1433H4283.41ZM4283.41 1682.52H4263.41C4263.41 1756.52 4203.42 1816.52 4129.41 1816.52V1836.52V1856.52C4225.51 1856.52 4303.41 1778.62 4303.41 1682.52H4283.41ZM4129.41 1836.52V1816.52H3729.44V1836.52V1856.52H4129.41V1836.52ZM3729.44 1836.52V1816.52C3713.02 1816.52 3697.33 1813.57 3682.84 1808.2L3675.89 1826.95L3668.93 1845.7C3687.8 1852.7 3708.2 1856.52 3729.44 1856.52V1836.52ZM3675.89 1826.95L3670.91 1807.58L3572.02 1833L3577 1852.37L3581.98 1871.74L3680.87 1846.32L3675.89 1826.95ZM3577 1852.37L3572.02 1833C3571.99 1833.01 3571.97 1833.01 3571.95 1833.02C3571.94 1833.02 3571.93 1833.02 3571.92 1833.02C3571.92 1833.02 3571.92 1833.02 3571.92 1833.02C3571.92 1833.02 3571.93 1833.02 3571.93 1833.02C3571.94 1833.02 3571.95 1833.02 3571.96 1833.02C3571.97 1833.02 3571.98 1833.02 3571.99 1833.03C3572.01 1833.03 3572.03 1833.03 3572.05 1833.04C3572.08 1833.05 3572.09 1833.06 3572.08 1833.05C3572.08 1833.05 3572.07 1833.04 3572.06 1833.03C3572.05 1833.02 3572.03 1833.01 3572.02 1833C3572.01 1832.99 3572 1832.98 3571.99 1832.96C3571.98 1832.95 3571.98 1832.94 3571.97 1832.94C3571.97 1832.93 3571.97 1832.94 3571.98 1832.97C3571.99 1832.99 3571.99 1833.01 3572 1833.03C3572 1833.04 3572 1833.05 3572 1833.06C3572 1833.07 3572 1833.08 3572 1833.09C3572 1833.1 3572 1833.1 3572 1833.1C3572 1833.11 3572 1833.1 3572 1833.1C3572 1833.09 3572 1833.08 3572.01 1833.07C3572.01 1833.05 3572.01 1833.03 3572.02 1833L3552.76 1827.62L3533.5 1822.24C3525.21 1851.91 3552.15 1879.41 3581.98 1871.74L3577 1852.37ZM3552.76 1827.62L3572.02 1833L3600.66 1730.46L3581.4 1725.08L3562.13 1719.7L3533.5 1822.24L3552.76 1827.62ZM3581.4 1725.08L3600.62 1719.56C3597.25 1707.82 3595.44 1695.4 3595.44 1682.52H3575.44H3555.44C3555.44 1699.17 3557.78 1715.3 3562.17 1730.59L3581.4 1725.08ZM3575.44 1682.52H3595.44V1433H3575.44H3555.44V1682.52H3575.44ZM3575.44 1433H3595.44C3595.44 1358.99 3655.43 1299 3729.44 1299V1279V1259C3633.34 1259 3555.44 1336.9 3555.44 1433H3575.44ZM3729.44 1279V1299H4129.41V1279V1259H3729.44V1279Z" fill="currentColor"></path><path d="M3737 1519H4126" stroke="currentColor" stroke-width="40" stroke-linecap="round"></path><path d="M3737 1609H4126" stroke="currentColor" stroke-width="40" stroke-linecap="round"></path></svg>