<!-- viewBox is padded (square 1074, content 836 wide at x 0..836, y 0..835)
     so the OPTICAL center — the robot head, not the head+antenna bbox — sits
     in the middle: the thin antenna reads as whitespace, and with a tight
     viewBox the mark looked pushed down in any centered slot. -->
<svg width="836" height="836" viewBox="-119 0 1074 1074" fill="none" xmlns="http://www.w3.org/2000/svg">
<path d="M618.891 277.931C703.942 277.931 772.891 346.879 772.891 431.931V681.45C772.891 766.501 703.942 835.45 618.891 835.45H218.918C133.866 835.45 64.918 766.502 64.918 681.45V431.931C64.918 346.879 133.866 277.931 218.918 277.931H618.891ZM218.869 312.298C155.356 312.298 103.869 363.786 103.869 427.298V684.554C103.869 748.067 155.356 799.554 218.869 799.554H616.65C680.163 799.554 731.65 748.067 731.65 684.554V427.298C731.65 363.786 680.163 312.298 616.65 312.298H218.869Z" fill="#16C0E8"/>
<path d="M584.261 377.215C630.653 377.215 668.261 414.823 668.261 461.215V652.165C668.261 698.557 630.653 736.165 584.261 736.165H252.785C206.393 736.165 168.785 698.557 168.785 652.165V461.215C168.785 414.823 206.393 377.215 252.785 377.215H584.261ZM294.037 496.356C277.165 496.356 263.487 510.034 263.487 526.905V587.239C263.487 604.111 277.165 617.788 294.037 617.788C310.909 617.788 324.586 604.111 324.586 587.239V526.905C324.586 510.034 310.909 496.357 294.037 496.356ZM546.065 496.356C529.194 496.356 515.516 510.034 515.516 526.905V587.239C515.516 604.111 529.194 617.788 546.065 617.788C562.937 617.788 576.614 604.111 576.614 587.239V526.905C576.614 510.034 562.937 496.357 546.065 496.356Z" fill="#17C0E9"/>
<rect x="401.719" y="190.103" width="34.3676" height="109.213" rx="17.1838" fill="#16C0E8"/>
<rect y="496.356" width="103.866" height="125.251" rx="47" fill="#17C0E9"/>
<rect x="731.648" y="496.356" width="103.866" height="125.251" rx="47" fill="#17C0E9"/>
<path d="M394.693 36.7021C394.555 17.4272 395.031 1.17542 395.752 0.592264C396.489 0.00910517 407.124 -0.282474 441.76 0.377416L442.143 36.0576C442.358 55.6855 442.696 71.7377 442.911 71.7377C443.125 71.753 458.149 66.919 476.288 61.026C494.427 55.133 509.804 50.2989 510.433 50.2836C511.062 50.2682 514.438 59.3993 517.906 70.5867C521.39 81.7742 524.505 91.78 524.812 92.8388C525.211 94.1279 514.331 98.2714 491.634 105.5C473.065 111.408 457.873 116.58 457.873 117.009C457.873 117.424 466.835 130.038 477.792 145.016C488.749 159.994 497.726 173.115 497.742 174.174C497.757 175.233 491.726 180.436 484.345 185.761C476.963 191.07 468.676 196.948 460.942 202.181L441.376 175.248C430.618 160.439 421.288 148.362 420.659 148.392C420.03 148.438 416.884 152.091 413.692 156.526C410.484 160.961 401.338 173.407 393.358 184.195C385.378 194.999 378.672 203.793 378.457 203.762C378.242 203.747 375.48 201.767 372.319 199.373C369.158 196.994 361.04 191.024 354.287 186.098C347.535 181.172 341.842 176.906 341.627 176.614C341.412 176.338 346.875 168.327 353.766 158.828C360.656 149.329 370.155 136.53 374.866 130.376C380.268 123.317 382.877 118.697 381.91 117.869C381.066 117.147 368.636 112.728 354.287 108.047C339.939 103.382 325.161 98.6397 321.462 97.5348C317.749 96.4299 314.403 94.8339 314.035 93.9898C313.667 93.1458 316.26 83.1246 319.836 71.7377C323.396 60.3354 326.388 50.79 326.48 50.5138C326.588 50.2375 341.167 54.6419 358.891 60.3047C376.616 65.9675 391.977 70.863 393.036 71.1699C394.54 71.6149 394.893 64.0952 394.693 36.7021Z" fill="#16C0E8"/>
</svg>
